<svg width="117" height="104" viewBox="0 0 117 104" fill="none" xmlns="http://www.w3.org/2000/svg">
<path d="M10.0451 17.5714L15.0075 1.10524H20.0301L12.406 23H7.69926L0.105263 1.10524H5.11279L10.0451 17.5714ZM35.2782 13.5113H26.6166V19.3759H36.782V23H22.1053V1.10524H36.7519V4.75938H26.6166V9.97743H35.2782V13.5113ZM56.752 20.2331C55.9399 21.2055 54.792 21.9624 53.3083 22.5038C51.8246 23.0351 50.1805 23.3008 48.376 23.3008C46.4813 23.3008 44.8171 22.8897 43.3835 22.0677C41.96 21.2356 40.8572 20.0326 40.0752 18.4586C39.3033 16.8847 38.9073 15.0351 38.8873 12.9098V11.421C38.8873 9.23557 39.2532 7.34584 39.985 5.75186C40.7269 4.14785 41.7895 2.92479 43.173 2.08268C44.5665 1.23055 46.1955 0.804483 48.0602 0.804483C50.6567 0.804483 52.6868 1.42604 54.1504 2.66915C55.6141 3.90223 56.4813 5.70173 56.752 8.06765H52.361C52.1605 6.81452 51.7144 5.89722 51.0226 5.31577C50.3409 4.73431 49.3986 4.44359 48.1956 4.44359C46.6617 4.44359 45.4938 5.02003 44.6918 6.17291C43.8898 7.32579 43.4838 9.04008 43.4737 11.3158V12.7143C43.4737 15.01 43.9098 16.7444 44.782 17.9173C45.6542 19.0902 46.9324 19.6767 48.6166 19.6767C50.3108 19.6767 51.5189 19.3158 52.2407 18.594V14.8195H48.1354V11.4962H56.752V20.2331ZM77.7445 20.2331C76.9324 21.2055 75.7846 21.9624 74.3008 22.5038C72.8171 23.0351 71.173 23.3008 69.3685 23.3008C67.4738 23.3008 65.8096 22.8897 64.376 22.0677C62.9525 21.2356 61.8497 20.0326 61.0677 18.4586C60.2958 16.8847 59.8998 15.0351 59.8798 12.9098V11.421C59.8798 9.23557 60.2457 7.34584 60.9775 5.75186C61.7194 4.14785 62.782 2.92479 64.1655 2.08268C65.559 1.23055 67.1881 0.804483 69.0527 0.804483C71.6492 0.804483 73.6793 1.42604 75.143 2.66915C76.6066 3.90223 77.4738 5.70173 77.7445 8.06765H73.3535C73.153 6.81452 72.7069 5.89722 72.0151 5.31577C71.3334 4.73431 70.3911 4.44359 69.1881 4.44359C67.6542 4.44359 66.4863 5.02003 65.6843 6.17291C64.8823 7.32579 64.4763 9.04008 64.4662 11.3158V12.7143C64.4662 15.01 64.9023 16.7444 65.7745 17.9173C66.6467 19.0902 67.9249 19.6767 69.6091 19.6767C71.3033 19.6767 72.5114 19.3158 73.2332 18.594V14.8195H69.1279V11.4962H77.7445V20.2331ZM86.2106 23H81.6994V1.10524H86.2106V23ZM103.579 13.5113H94.9174V19.3759H105.083V23H90.4061V1.10524H105.053V4.75938H94.9174V9.97743H103.579V13.5113ZM1.95489 63V41.1052H9.62407C12.2807 41.1052 14.2958 41.6165 15.6692 42.6391C17.0426 43.6516 17.7293 45.1403 17.7293 47.1052C17.7293 48.1779 17.4537 49.1253 16.9023 49.9474C16.3509 50.7594 15.584 51.3559 14.6015 51.7368C15.7243 52.0175 16.6065 52.5839 17.2481 53.4361C17.8998 54.2882 18.2256 55.3308 18.2256 56.5639C18.2256 58.6692 17.5539 60.2632 16.2105 61.3459C14.8672 62.4286 12.9524 62.9799 10.4662 63H1.95489ZM6.46617 53.4662V59.3759H10.3308C11.3935 59.3759 12.2206 59.1253 12.812 58.6241C13.4136 58.1128 13.7143 57.411 13.7143 56.5188C13.7143 54.5138 12.6767 53.4962 10.6015 53.4662H6.46617ZM6.46617 50.2782H9.80452C12.0802 50.2381 13.2181 49.3308 13.2181 47.5564C13.2181 46.5639 12.9273 45.8521 12.3459 45.421C11.7745 44.9799 10.8672 44.7594 9.62407 44.7594H6.46617V50.2782ZM38.1955 41.1052V55.5263C38.1955 57.9223 37.4437 59.817 35.9399 61.2105C34.4462 62.604 32.401 63.3008 29.8045 63.3008C27.2482 63.3008 25.2181 62.6241 23.7143 61.2707C22.2106 59.9173 21.4436 58.0576 21.4136 55.6917V41.1052H25.9248V55.5564C25.9248 56.99 26.2657 58.0376 26.9474 58.6992C27.6391 59.3509 28.5915 59.6767 29.8045 59.6767C32.3409 59.6767 33.6291 58.3434 33.6692 55.6767V41.1052H38.1955ZM50.0001 54.985H46.4061V63H41.8948V41.1052H50.0301C52.6166 41.1052 54.6116 41.6817 56.0151 42.8346C57.4186 43.9874 58.1204 45.6165 58.1204 47.7218C58.1204 49.2155 57.7946 50.4636 57.1429 51.4662C56.5013 52.4586 55.5239 53.2506 54.2106 53.8421L58.9474 62.7895V63H54.1053L50.0001 54.985ZM46.4061 51.3308H50.0452C51.178 51.3308 52.0552 51.0451 52.6768 50.4737C53.2983 49.8922 53.6091 49.0952 53.6091 48.0827C53.6091 47.0501 53.3133 46.2381 52.7219 45.6466C52.1404 45.0551 51.2432 44.7594 50.0301 44.7594H46.4061V51.3308ZM78.8873 60.2331C78.0753 61.2055 76.9274 61.9624 75.4437 62.5038C73.96 63.0351 72.3159 63.3008 70.5114 63.3008C68.6166 63.3008 66.9525 62.8897 65.5189 62.0677C64.0953 61.2356 62.9926 60.0326 62.2106 58.4586C61.4387 56.8847 61.0427 55.0351 61.0226 52.9098V51.421C61.0226 49.2356 61.3885 47.3458 62.1204 45.7519C62.8622 44.1478 63.9249 42.9248 65.3084 42.0827C66.7018 41.2305 68.3309 40.8045 70.1956 40.8045C72.7921 40.8045 74.8221 41.426 76.2858 42.6691C77.7495 43.9022 78.6166 45.7017 78.8873 48.0677H74.4963C74.2958 46.8145 73.8497 45.8972 73.158 45.3158C72.4763 44.7343 71.5339 44.4436 70.3309 44.4436C68.7971 44.4436 67.6292 45.02 66.8272 46.1729C66.0251 47.3258 65.6191 49.0401 65.6091 51.3158V52.7143C65.6091 55.01 66.0452 56.7444 66.9174 57.9173C67.7896 59.0902 69.0678 59.6767 70.752 59.6767C72.4462 59.6767 73.6542 59.3158 74.376 58.594V54.8195H70.2708V51.4962H78.8873V60.2331ZM95.7294 53.5113H87.0678V59.3759H97.2332V63H82.5565V41.1052H97.2031V44.7594H87.0678V49.9774H95.7294V53.5113ZM107.985 54.985H104.391V63H99.8798V41.1052H108.015C110.602 41.1052 112.597 41.6817 114 42.8346C115.404 43.9874 116.105 45.6165 116.105 47.7218C116.105 49.2155 115.78 50.4636 115.128 51.4662C114.486 52.4586 113.509 53.2506 112.196 53.8421L116.932 62.7895V63H112.09L107.985 54.985ZM104.391 51.3308H108.03C109.163 51.3308 110.04 51.0451 110.662 50.4737C111.283 49.8922 111.594 49.0952 111.594 48.0827C111.594 47.0501 111.298 46.2381 110.707 45.6466C110.125 45.0551 109.228 44.7594 108.015 44.7594H104.391V51.3308ZM18.4361 84.7594H11.7293V103H7.21805V84.7594H0.601505V81.1052H18.4361V84.7594ZM38.5865 92.5489C38.5865 94.7043 38.2056 96.594 37.4437 98.218C36.6818 99.8421 35.589 101.095 34.1655 101.977C32.7519 102.86 31.1279 103.301 29.2933 103.301C27.4787 103.301 25.8597 102.865 24.4361 101.992C23.0126 101.12 21.9098 99.8772 21.1278 98.2632C20.3459 96.6391 19.9499 94.7744 19.9399 92.6692V91.5865C19.9399 89.4311 20.3258 87.5363 21.0978 85.9022C21.8797 84.2581 22.9775 83 24.391 82.1278C25.8146 81.2456 27.4386 80.8045 29.2632 80.8045C31.0878 80.8045 32.7068 81.2456 34.1203 82.1278C35.5439 83 36.6417 84.2581 37.4136 85.9022C38.1955 87.5363 38.5865 89.426 38.5865 91.5714V92.5489ZM34.0151 91.5564C34.0151 89.2606 33.6041 87.5163 32.782 86.3233C31.9599 85.1303 30.787 84.5338 29.2632 84.5338C27.7494 84.5338 26.5815 85.1253 25.7594 86.3082C24.9374 87.4812 24.5213 89.2055 24.5113 91.4812V92.5489C24.5113 94.7845 24.9223 96.5188 25.7444 97.7519C26.5665 98.985 27.7494 99.6015 29.2933 99.6015C30.8071 99.6015 31.97 99.01 32.782 97.8271C33.594 96.6341 34.0051 94.8997 34.0151 92.624V91.5564ZM58.9174 96.6842L61.8647 81.1052H66.361L61.5038 103H56.9625L53.3986 88.3534L49.8347 103H45.2933L40.4361 81.1052H44.9324L47.8948 96.6541L51.5038 81.1052H55.3234L58.9174 96.6842ZM86.6167 103H82.1054L73.3234 88.594V103H68.8121V81.1052H73.3234L82.1204 95.5413V81.1052H86.6167V103Z" fill="#F3A52B"/>
</svg>
