<svg width="380" height="27" viewBox="0 0 380 27" fill="none" xmlns="http://www.w3.org/2000/svg">
<path d="M11.7422 19.6543L17.543 0.40625H23.4141L14.502 26H9L0.123047 0.40625H5.97656L11.7422 19.6543ZM41.2383 14.9082H31.1133V21.7637H42.9961V26H25.8398V0.40625H42.9609V4.67773H31.1133V10.7773H41.2383V14.9082ZM66.3398 22.7656C65.3906 23.9023 64.0488 24.7871 62.3145 25.4199C60.5801 26.041 58.6582 26.3516 56.5488 26.3516C54.334 26.3516 52.3887 25.8711 50.7129 24.9102C49.0488 23.9375 47.7598 22.5312 46.8457 20.6914C45.9434 18.8516 45.4805 16.6895 45.457 14.2051V12.4648C45.457 9.91016 45.8848 7.70117 46.7402 5.83789C47.6074 3.96289 48.8496 2.5332 50.4668 1.54883C52.0957 0.552734 54 0.0546875 56.1797 0.0546875C59.2148 0.0546875 61.5879 0.78125 63.2988 2.23438C65.0098 3.67578 66.0234 5.7793 66.3398 8.54492H61.207C60.9727 7.08008 60.4512 6.00781 59.6426 5.32812C58.8457 4.64844 57.7441 4.30859 56.3379 4.30859C54.5449 4.30859 53.1797 4.98242 52.2422 6.33008C51.3047 7.67773 50.8301 9.68164 50.8184 12.3418V13.9766C50.8184 16.6602 51.3281 18.6875 52.3477 20.0586C53.3672 21.4297 54.8613 22.1152 56.8301 22.1152C58.8105 22.1152 60.2227 21.6934 61.0664 20.8496V16.4375H56.2676V12.5527H66.3398V22.7656ZM90.8789 22.7656C89.9297 23.9023 88.5879 24.7871 86.8535 25.4199C85.1191 26.041 83.1973 26.3516 81.0879 26.3516C78.873 26.3516 76.9277 25.8711 75.252 24.9102C73.5879 23.9375 72.2988 22.5312 71.3848 20.6914C70.4824 18.8516 70.0195 16.6895 69.9961 14.2051V12.4648C69.9961 9.91016 70.4238 7.70117 71.2793 5.83789C72.1465 3.96289 73.3887 2.5332 75.0059 1.54883C76.6348 0.552734 78.5391 0.0546875 80.7188 0.0546875C83.7539 0.0546875 86.127 0.78125 87.8379 2.23438C89.5488 3.67578 90.5625 5.7793 90.8789 8.54492H85.7461C85.5117 7.08008 84.9902 6.00781 84.1816 5.32812C83.3848 4.64844 82.2832 4.30859 80.877 4.30859C79.084 4.30859 77.7188 4.98242 76.7812 6.33008C75.8438 7.67773 75.3691 9.68164 75.3574 12.3418V13.9766C75.3574 16.6602 75.8672 18.6875 76.8867 20.0586C77.9062 21.4297 79.4004 22.1152 81.3691 22.1152C83.3496 22.1152 84.7617 21.6934 85.6055 20.8496V16.4375H80.8066V12.5527H90.8789V22.7656ZM100.775 26H95.502V0.40625H100.775V26ZM121.078 14.9082H110.953V21.7637H122.836V26H105.68V0.40625H122.801V4.67773H110.953V10.7773H121.078V14.9082ZM134.895 26V0.40625H143.859C146.965 0.40625 149.32 1.00391 150.926 2.19922C152.531 3.38281 153.334 5.12305 153.334 7.41992C153.334 8.67383 153.012 9.78125 152.367 10.7422C151.723 11.6914 150.826 12.3887 149.678 12.834C150.99 13.1621 152.021 13.8242 152.771 14.8203C153.533 15.8164 153.914 17.0352 153.914 18.4766C153.914 20.9375 153.129 22.8008 151.559 24.0664C149.988 25.332 147.75 25.9766 144.844 26H134.895ZM140.168 14.8555V21.7637H144.686C145.928 21.7637 146.895 21.4707 147.586 20.8848C148.289 20.2871 148.641 19.4668 148.641 18.4238C148.641 16.0801 147.428 14.8906 145.002 14.8555H140.168ZM140.168 11.1289H144.07C146.73 11.082 148.061 10.0215 148.061 7.94727C148.061 6.78711 147.721 5.95508 147.041 5.45117C146.373 4.93555 145.312 4.67773 143.859 4.67773H140.168V11.1289ZM177.258 0.40625V17.2637C177.258 20.0645 176.379 22.2793 174.621 23.9082C172.875 25.5371 170.484 26.3516 167.449 26.3516C164.461 26.3516 162.088 25.5605 160.33 23.9785C158.572 22.3965 157.676 20.2227 157.641 17.457V0.40625H162.914V17.2988C162.914 18.9746 163.312 20.1992 164.109 20.9727C164.918 21.7344 166.031 22.1152 167.449 22.1152C170.414 22.1152 171.92 20.5566 171.967 17.4395V0.40625H177.258ZM191.057 16.6309H186.855V26H181.582V0.40625H191.092C194.115 0.40625 196.447 1.08008 198.088 2.42773C199.729 3.77539 200.549 5.67969 200.549 8.14062C200.549 9.88672 200.168 11.3457 199.406 12.5176C198.656 13.6777 197.514 14.6035 195.979 15.2949L201.516 25.7539V26H195.855L191.057 16.6309ZM186.855 12.3594H191.109C192.434 12.3594 193.459 12.0254 194.186 11.3574C194.912 10.6777 195.275 9.74609 195.275 8.5625C195.275 7.35547 194.93 6.40625 194.238 5.71484C193.559 5.02344 192.51 4.67773 191.092 4.67773H186.855V12.3594ZM224.824 22.7656C223.875 23.9023 222.533 24.7871 220.799 25.4199C219.064 26.041 217.143 26.3516 215.033 26.3516C212.818 26.3516 210.873 25.8711 209.197 24.9102C207.533 23.9375 206.244 22.5312 205.33 20.6914C204.428 18.8516 203.965 16.6895 203.941 14.2051V12.4648C203.941 9.91016 204.369 7.70117 205.225 5.83789C206.092 3.96289 207.334 2.5332 208.951 1.54883C210.58 0.552734 212.484 0.0546875 214.664 0.0546875C217.699 0.0546875 220.072 0.78125 221.783 2.23438C223.494 3.67578 224.508 5.7793 224.824 8.54492H219.691C219.457 7.08008 218.936 6.00781 218.127 5.32812C217.33 4.64844 216.229 4.30859 214.822 4.30859C213.029 4.30859 211.664 4.98242 210.727 6.33008C209.789 7.67773 209.314 9.68164 209.303 12.3418V13.9766C209.303 16.6602 209.812 18.6875 210.832 20.0586C211.852 21.4297 213.346 22.1152 215.314 22.1152C217.295 22.1152 218.707 21.6934 219.551 20.8496V16.4375H214.752V12.5527H224.824V22.7656ZM244.512 14.9082H234.387V21.7637H246.27V26H229.113V0.40625H246.234V4.67773H234.387V10.7773H244.512V14.9082ZM258.838 16.6309H254.637V26H249.363V0.40625H258.873C261.896 0.40625 264.229 1.08008 265.869 2.42773C267.51 3.77539 268.33 5.67969 268.33 8.14062C268.33 9.88672 267.949 11.3457 267.188 12.5176C266.438 13.6777 265.295 14.6035 263.76 15.2949L269.297 25.7539V26H263.637L258.838 16.6309ZM254.637 12.3594H258.891C260.215 12.3594 261.24 12.0254 261.967 11.3574C262.693 10.6777 263.057 9.74609 263.057 8.5625C263.057 7.35547 262.711 6.40625 262.02 5.71484C261.34 5.02344 260.291 4.67773 258.873 4.67773H254.637V12.3594ZM299.531 4.67773H291.691V26H286.418V4.67773H278.684V0.40625H299.531V4.67773ZM323.086 13.7832C323.086 16.3027 322.641 18.5117 321.75 20.4102C320.859 22.3086 319.582 23.7734 317.918 24.8047C316.266 25.8359 314.367 26.3516 312.223 26.3516C310.102 26.3516 308.209 25.8418 306.545 24.8223C304.881 23.8027 303.592 22.3496 302.678 20.4629C301.764 18.5645 301.301 16.3848 301.289 13.9238V12.6582C301.289 10.1387 301.74 7.92383 302.643 6.01367C303.557 4.0918 304.84 2.62109 306.492 1.60156C308.156 0.570312 310.055 0.0546875 312.188 0.0546875C314.32 0.0546875 316.213 0.570312 317.865 1.60156C319.529 2.62109 320.812 4.0918 321.715 6.01367C322.629 7.92383 323.086 10.1328 323.086 12.6406V13.7832ZM317.742 12.623C317.742 9.93945 317.262 7.90039 316.301 6.50586C315.34 5.11133 313.969 4.41406 312.188 4.41406C310.418 4.41406 309.053 5.10547 308.092 6.48828C307.131 7.85938 306.645 9.875 306.633 12.5352V13.7832C306.633 16.3965 307.113 18.4238 308.074 19.8652C309.035 21.3066 310.418 22.0273 312.223 22.0273C313.992 22.0273 315.352 21.3359 316.301 19.9531C317.25 18.5586 317.73 16.5312 317.742 13.8711V12.623ZM346.852 18.6172L350.297 0.40625H355.553L349.875 26H344.566L340.4 8.87891L336.234 26H330.926L325.248 0.40625H330.504L333.967 18.582L338.186 0.40625H342.65L346.852 18.6172ZM379.23 26H373.957L363.691 9.16016V26H358.418V0.40625H363.691L373.975 17.2812V0.40625H379.23V26Z" fill="#27340E"/>
</svg>
