<svg width="137" height="111" viewBox="0 0 137 111" fill="none" xmlns="http://www.w3.org/2000/svg">
<path d="M11.7422 19.6543L17.543 0.40625H23.4141L14.502 26H9L0.123047 0.40625H5.97656L11.7422 19.6543ZM41.2383 14.9082H31.1133V21.7637H42.9961V26H25.8398V0.40625H42.9609V4.67773H31.1133V10.7773H41.2383V14.9082ZM66.3398 22.7656C65.3906 23.9023 64.0488 24.7871 62.3145 25.4199C60.5801 26.041 58.6582 26.3516 56.5488 26.3516C54.334 26.3516 52.3887 25.8711 50.7129 24.9102C49.0488 23.9375 47.7598 22.5312 46.8457 20.6914C45.9434 18.8516 45.4805 16.6895 45.457 14.2051V12.4648C45.457 9.91016 45.8848 7.70117 46.7402 5.83789C47.6074 3.96289 48.8496 2.5332 50.4668 1.54883C52.0957 0.552734 54 0.0546875 56.1797 0.0546875C59.2148 0.0546875 61.5879 0.78125 63.2988 2.23438C65.0098 3.67578 66.0234 5.7793 66.3398 8.54492H61.207C60.9727 7.08008 60.4512 6.00781 59.6426 5.32812C58.8457 4.64844 57.7441 4.30859 56.3379 4.30859C54.5449 4.30859 53.1797 4.98242 52.2422 6.33008C51.3047 7.67773 50.8301 9.68164 50.8184 12.3418V13.9766C50.8184 16.6602 51.3281 18.6875 52.3477 20.0586C53.3672 21.4297 54.8613 22.1152 56.8301 22.1152C58.8105 22.1152 60.2227 21.6934 61.0664 20.8496V16.4375H56.2676V12.5527H66.3398V22.7656ZM90.8789 22.7656C89.9297 23.9023 88.5879 24.7871 86.8535 25.4199C85.1191 26.041 83.1973 26.3516 81.0879 26.3516C78.873 26.3516 76.9277 25.8711 75.252 24.9102C73.5879 23.9375 72.2988 22.5312 71.3848 20.6914C70.4824 18.8516 70.0195 16.6895 69.9961 14.2051V12.4648C69.9961 9.91016 70.4238 7.70117 71.2793 5.83789C72.1465 3.96289 73.3887 2.5332 75.0059 1.54883C76.6348 0.552734 78.5391 0.0546875 80.7188 0.0546875C83.7539 0.0546875 86.127 0.78125 87.8379 2.23438C89.5488 3.67578 90.5625 5.7793 90.8789 8.54492H85.7461C85.5117 7.08008 84.9902 6.00781 84.1816 5.32812C83.3848 4.64844 82.2832 4.30859 80.877 4.30859C79.084 4.30859 77.7188 4.98242 76.7812 6.33008C75.8438 7.67773 75.3691 9.68164 75.3574 12.3418V13.9766C75.3574 16.6602 75.8672 18.6875 76.8867 20.0586C77.9062 21.4297 79.4004 22.1152 81.3691 22.1152C83.3496 22.1152 84.7617 21.6934 85.6055 20.8496V16.4375H80.8066V12.5527H90.8789V22.7656ZM100.775 26H95.502V0.40625H100.775V26ZM121.078 14.9082H110.953V21.7637H122.836V26H105.68V0.40625H122.801V4.67773H110.953V10.7773H121.078V14.9082ZM2.28516 68V42.4062H11.25C14.3555 42.4062 16.7109 43.0039 18.3164 44.1992C19.9219 45.3828 20.7246 47.123 20.7246 49.4199C20.7246 50.6738 20.4023 51.7812 19.7578 52.7422C19.1133 53.6914 18.2168 54.3887 17.0684 54.834C18.3809 55.1621 19.4121 55.8242 20.1621 56.8203C20.9238 57.8164 21.3047 59.0352 21.3047 60.4766C21.3047 62.9375 20.5195 64.8008 18.9492 66.0664C17.3789 67.332 15.1406 67.9766 12.2344 68H2.28516ZM7.55859 56.8555V63.7637H12.0762C13.3184 63.7637 14.2852 63.4707 14.9766 62.8848C15.6797 62.2871 16.0312 61.4668 16.0312 60.4238C16.0312 58.0801 14.8184 56.8906 12.3926 56.8555H7.55859ZM7.55859 53.1289H11.4609C14.1211 53.082 15.4512 52.0215 15.4512 49.9473C15.4512 48.7871 15.1113 47.9551 14.4316 47.4512C13.7637 46.9355 12.7031 46.6777 11.25 46.6777H7.55859V53.1289ZM44.6484 42.4062V59.2637C44.6484 62.0645 43.7695 64.2793 42.0117 65.9082C40.2656 67.5371 37.875 68.3516 34.8398 68.3516C31.8516 68.3516 29.4785 67.5605 27.7207 65.9785C25.9629 64.3965 25.0664 62.2227 25.0312 59.457V42.4062H30.3047V59.2988C30.3047 60.9746 30.7031 62.1992 31.5 62.9727C32.3086 63.7344 33.4219 64.1152 34.8398 64.1152C37.8047 64.1152 39.3105 62.5566 39.3574 59.4395V42.4062H44.6484ZM58.4473 58.6309H54.2461V68H48.9727V42.4062H58.4824C61.5059 42.4062 63.8379 43.0801 65.4785 44.4277C67.1191 45.7754 67.9395 47.6797 67.9395 50.1406C67.9395 51.8867 67.5586 53.3457 66.7969 54.5176C66.0469 55.6777 64.9043 56.6035 63.3691 57.2949L68.9062 67.7539V68H63.2461L58.4473 58.6309ZM54.2461 54.3594H58.5C59.8242 54.3594 60.8496 54.0254 61.5762 53.3574C62.3027 52.6777 62.666 51.7461 62.666 50.5625C62.666 49.3555 62.3203 48.4062 61.6289 47.7148C60.9492 47.0234 59.9004 46.6777 58.4824 46.6777H54.2461V54.3594ZM92.2148 64.7656C91.2656 65.9023 89.9238 66.7871 88.1895 67.4199C86.4551 68.041 84.5332 68.3516 82.4238 68.3516C80.209 68.3516 78.2637 67.8711 76.5879 66.9102C74.9238 65.9375 73.6348 64.5312 72.7207 62.6914C71.8184 60.8516 71.3555 58.6895 71.332 56.2051V54.4648C71.332 51.9102 71.7598 49.7012 72.6152 47.8379C73.4824 45.9629 74.7246 44.5332 76.3418 43.5488C77.9707 42.5527 79.875 42.0547 82.0547 42.0547C85.0898 42.0547 87.4629 42.7812 89.1738 44.2344C90.8848 45.6758 91.8984 47.7793 92.2148 50.5449H87.082C86.8477 49.0801 86.3262 48.0078 85.5176 47.3281C84.7207 46.6484 83.6191 46.3086 82.2129 46.3086C80.4199 46.3086 79.0547 46.9824 78.1172 48.3301C77.1797 49.6777 76.7051 51.6816 76.6934 54.3418V55.9766C76.6934 58.6602 77.2031 60.6875 78.2227 62.0586C79.2422 63.4297 80.7363 64.1152 82.7051 64.1152C84.6855 64.1152 86.0977 63.6934 86.9414 62.8496V58.4375H82.1426V54.5527H92.2148V64.7656ZM111.902 56.9082H101.777V63.7637H113.66V68H96.5039V42.4062H113.625V46.6777H101.777V52.7773H111.902V56.9082ZM126.229 58.6309H122.027V68H116.754V42.4062H126.264C129.287 42.4062 131.619 43.0801 133.26 44.4277C134.9 45.7754 135.721 47.6797 135.721 50.1406C135.721 51.8867 135.34 53.3457 134.578 54.5176C133.828 55.6777 132.686 56.6035 131.15 57.2949L136.688 67.7539V68H131.027L126.229 58.6309ZM122.027 54.3594H126.281C127.605 54.3594 128.631 54.0254 129.357 53.3574C130.084 52.6777 130.447 51.7461 130.447 50.5625C130.447 49.3555 130.102 48.4062 129.41 47.7148C128.73 47.0234 127.682 46.6777 126.264 46.6777H122.027V54.3594ZM21.5508 88.6777H13.7109V110H8.4375V88.6777H0.703125V84.4062H21.5508V88.6777ZM45.1055 97.7832C45.1055 100.303 44.6602 102.512 43.7695 104.41C42.8789 106.309 41.6016 107.773 39.9375 108.805C38.2852 109.836 36.3867 110.352 34.2422 110.352C32.1211 110.352 30.2285 109.842 28.5645 108.822C26.9004 107.803 25.6113 106.35 24.6973 104.463C23.7832 102.564 23.3203 100.385 23.3086 97.9238V96.6582C23.3086 94.1387 23.7598 91.9238 24.6621 90.0137C25.5762 88.0918 26.8594 86.6211 28.5117 85.6016C30.1758 84.5703 32.0742 84.0547 34.207 84.0547C36.3398 84.0547 38.2324 84.5703 39.8848 85.6016C41.5488 86.6211 42.832 88.0918 43.7344 90.0137C44.6484 91.9238 45.1055 94.1328 45.1055 96.6406V97.7832ZM39.7617 96.623C39.7617 93.9395 39.2812 91.9004 38.3203 90.5059C37.3594 89.1113 35.9883 88.4141 34.207 88.4141C32.4375 88.4141 31.0723 89.1055 30.1113 90.4883C29.1504 91.8594 28.6641 93.875 28.6523 96.5352V97.7832C28.6523 100.396 29.1328 102.424 30.0938 103.865C31.0547 105.307 32.4375 106.027 34.2422 106.027C36.0117 106.027 37.3711 105.336 38.3203 103.953C39.2695 102.559 39.75 100.531 39.7617 97.8711V96.623ZM68.8711 102.617L72.3164 84.4062H77.5723L71.8945 110H66.5859L62.4199 92.8789L58.2539 110H52.9453L47.2676 84.4062H52.5234L55.9863 102.582L60.2051 84.4062H64.6699L68.8711 102.617ZM101.25 110H95.9766L85.7109 93.1602V110H80.4375V84.4062H85.7109L95.9941 101.281V84.4062H101.25V110Z" fill="#27340E"/>
</svg>
